<svg xmlns="http://www.w3.org/2000/svg" width="1280" height="720" viewBox="0 0 1280 720" role="img" aria-label="Learn Python with AI preview placeholder">
  <defs>
    <linearGradient id="bg" x1="0" y1="0" x2="1" y2="1">
      <stop offset="0%" stop-color="#070a12"/>
      <stop offset="100%" stop-color="#0b1020"/>
    </linearGradient>
    <linearGradient id="accent" x1="0" y1="0" x2="1" y2="0">
      <stop offset="0%" stop-color="#002fa7"/>
      <stop offset="100%" stop-color="#a0beff"/>
    </linearGradient>
  </defs>

  <rect width="1280" height="720" fill="url(#bg)"/>
  <circle cx="170" cy="80" r="190" fill="#002fa7" opacity="0.22"/>
  <circle cx="1140" cy="90" r="150" fill="#a0beff" opacity="0.16"/>

  <rect x="120" y="90" width="1040" height="540" rx="22" fill="#ffffff" fill-opacity="0.06" stroke="#ffffff" stroke-opacity="0.18"/>
  <rect x="160" y="140" width="480" height="36" rx="10" fill="#ffffff" fill-opacity="0.12"/>
  <rect x="160" y="192" width="700" height="18" rx="9" fill="#ffffff" fill-opacity="0.1"/>
  <rect x="160" y="224" width="620" height="18" rx="9" fill="#ffffff" fill-opacity="0.1"/>

  <rect x="160" y="280" width="210" height="44" rx="10" fill="url(#accent)"/>
  <rect x="386" y="280" width="180" height="44" rx="10" fill="#ffffff" fill-opacity="0.1" stroke="#ffffff" stroke-opacity="0.2"/>

  <rect x="160" y="360" width="305" height="220" rx="16" fill="#ffffff" fill-opacity="0.05" stroke="#ffffff" stroke-opacity="0.16"/>
  <rect x="487" y="360" width="305" height="220" rx="16" fill="#ffffff" fill-opacity="0.05" stroke="#ffffff" stroke-opacity="0.16"/>
  <rect x="814" y="360" width="305" height="220" rx="16" fill="#ffffff" fill-opacity="0.05" stroke="#ffffff" stroke-opacity="0.16"/>

  <text x="160" y="662" fill="#eef2ff" fill-opacity="0.85" font-family="Segoe UI, Roboto, Arial, sans-serif" font-size="22">Learn Python with AI — preview placeholder</text>
</svg>
